<svg width="122" height="163" viewBox="0 0 122 163" fill="none" xmlns="http://www.w3.org/2000/svg">
<path d="M101.667 147.719C104.463 147.719 106.75 145.427 106.75 142.625V50.9375H81.3333C75.7099 50.9375 71.1667 46.385 71.1667 40.75V15.2812H20.3333C17.5375 15.2812 15.25 17.5734 15.25 20.375V142.625C15.25 145.427 17.5375 147.719 20.3333 147.719H101.667ZM0 20.375C0 9.13691 9.11823 0 20.3333 0H72.9141C78.3151 0 83.4937 2.13301 87.3062 5.95332L116.059 34.7648C119.871 38.5852 122 43.7744 122 49.1865V142.625C122 153.863 112.882 163 101.667 163H20.3333C9.11823 163 0 153.863 0 142.625V20.375Z" fill="#234CAD"/>
</svg>
