<svg width="22" height="22" viewBox="0 0 22 22" fill="none" xmlns="http://www.w3.org/2000/svg">
<path d="M6.22727 17.3158C6.77956 17.3158 7.22727 16.8681 7.22727 16.3158C7.22727 15.7635 6.77956 15.3158 6.22727 15.3158V17.3158ZM5.54545 8.26316V9.26316H6.54545V8.26316H5.54545ZM16.4545 8.26316H15.4545V9.26316H16.4545V8.26316ZM15.7727 15.3158C15.2204 15.3158 14.7727 15.7635 14.7727 16.3158C14.7727 16.8681 15.2204 17.3158 15.7727 17.3158V15.3158ZM10 19C10 19.5523 10.4477 20 11 20C11.5523 20 12 19.5523 12 19H10ZM12 10.9474C12 10.3951 11.5523 9.94737 11 9.94737C10.4477 9.94737 10 10.3951 10 10.9474H12ZM11.7015 11.6601C12.0951 11.2727 12.1001 10.6395 11.7127 10.2459C11.3253 9.85229 10.6922 9.84725 10.2985 10.2347L11.7015 11.6601ZM7.57127 12.9189C7.17765 13.3063 7.17261 13.9394 7.56002 14.333C7.94742 14.7267 8.58057 14.7317 8.97418 14.3443L7.57127 12.9189ZM11.7015 10.2347C11.3078 9.84725 10.6747 9.85229 10.2873 10.2459C9.89988 10.6395 9.90492 11.2727 10.2985 11.6601L11.7015 10.2347ZM13.0258 14.3443C13.4194 14.7317 14.0526 14.7267 14.44 14.333C14.8274 13.9394 14.8223 13.3063 14.4287 12.9189L13.0258 14.3443ZM6.22727 15.3158H5.09091V17.3158H6.22727V15.3158ZM5.09091 15.3158C3.36878 15.3158 2 13.9459 2 12.2895H0C0 15.0804 2.29435 17.3158 5.09091 17.3158V15.3158ZM2 12.2895C2 10.633 3.36878 9.26316 5.09091 9.26316V7.26316C2.29435 7.26316 0 9.49855 0 12.2895H2ZM5.09091 9.26316H5.54545V7.26316H5.09091V9.26316ZM6.54545 8.26316V7.36842H4.54545V8.26316H6.54545ZM6.54545 7.36842C6.54545 4.97075 8.52476 3 11 3V1C7.45032 1 4.54545 3.83629 4.54545 7.36842H6.54545ZM11 3C13.4752 3 15.4545 4.97075 15.4545 7.36842H17.4545C17.4545 3.83629 14.5497 1 11 1V3ZM15.4545 7.36842V8.26316H17.4545V7.36842H15.4545ZM16.4545 9.26316H16.9091V7.26316H16.4545V9.26316ZM16.9091 9.26316C18.6312 9.26316 20 10.633 20 12.2895H22C22 9.49855 19.7057 7.26316 16.9091 7.26316V9.26316ZM20 12.2895C20 13.9459 18.6312 15.3158 16.9091 15.3158V17.3158C19.7057 17.3158 22 15.0804 22 12.2895H20ZM16.9091 15.3158H15.7727V17.3158H16.9091V15.3158ZM12 19V10.9474H10V19H12ZM10.2985 10.2347L7.57127 12.9189L8.97418 14.3443L11.7015 11.6601L10.2985 10.2347ZM10.2985 11.6601L13.0258 14.3443L14.4287 12.9189L11.7015 10.2347L10.2985 11.6601Z" fill="#234CAD"/>
</svg>
